<svg xmlns="http://www.w3.org/2000/svg" viewBox="0 0 1300 816" width="1300" height="816" font-family="Helvetica, Arial, sans-serif" role="img" aria-label="Compliance checking subsystem">
<title>Compliance checking subsystem</title>
<defs>
  <marker id="arrow" viewBox="0 0 10 10" refX="9" refY="5" markerWidth="7" markerHeight="7" orient="auto-start-reverse"><path d="M0,0 L10,5 L0,10 z" fill="#111111"/></marker>
  <marker id="arrow-muted" viewBox="0 0 10 10" refX="9" refY="5" markerWidth="7" markerHeight="7" orient="auto-start-reverse"><path d="M0,0 L10,5 L0,10 z" fill="#8a8a8a"/></marker>
  <pattern id="hatch45" patternUnits="userSpaceOnUse" width="6" height="6" patternTransform="rotate(45)"><rect width="6" height="6" fill="#ffffff"/><line x1="0" y1="0" x2="0" y2="6" stroke="#111111" stroke-width="2"/></pattern>
  <pattern id="hatch135" patternUnits="userSpaceOnUse" width="6" height="6" patternTransform="rotate(135)"><rect width="6" height="6" fill="#ffffff"/><line x1="0" y1="0" x2="0" y2="6" stroke="#8a8a8a" stroke-width="2"/></pattern>
</defs>
<rect width="1300" height="816" fill="#ffffff"/>
<text x="60" y="36" font-size="14" font-weight="700" fill="#111111">A.  Automatic check from a public document (Auto Check)</text>
<rect x="60" y="56" width="560" height="56" rx="6" fill="#ffffff" stroke="#111111" stroke-width="1.2"/>
<text x="340" y="76.2" font-size="14" font-weight="700" text-anchor="middle" fill="#111111">Upload</text>
<text x="340" y="99.7" font-size="11" text-anchor="middle" fill="#222222">PDF · XLSX · CSV · HTML · JSON; tables kept as rows</text>
<path d="M340,112 L340,130" fill="none" stroke="#111111" stroke-width="1.3" marker-end="url(#arrow)"/>
<rect x="60" y="132" width="560" height="56" rx="6" fill="#ffffff" stroke="#111111" stroke-width="1.2"/>
<text x="340" y="152.2" font-size="14" font-weight="700" text-anchor="middle" fill="#111111">Profile detection</text>
<text x="340" y="175.7" font-size="11" text-anchor="middle" fill="#222222">bank, institution category, as-of date, document type</text>
<path d="M340,188 L340,206" fill="none" stroke="#111111" stroke-width="1.3" marker-end="url(#arrow)"/>
<rect x="60" y="208" width="560" height="56" rx="6" fill="#ffffff" stroke="#111111" stroke-width="1.2"/>
<text x="340" y="228.2" font-size="14" font-weight="700" text-anchor="middle" fill="#111111">Figure extraction</text>
<text x="340" y="251.7" font-size="11" text-anchor="middle" fill="#222222">CRAR, CET1, Tier 1, LCR, NSFR, leverage, NPA, PSL …; LLM only for gaps, verified</text>
<path d="M340,264 L340,282" fill="none" stroke="#111111" stroke-width="1.3" marker-end="url(#arrow)"/>
<rect x="60" y="284" width="560" height="56" rx="6" fill="#ffffff" stroke="#111111" stroke-width="1.2"/>
<text x="340" y="304.2" font-size="14" font-weight="700" text-anchor="middle" fill="#111111">Review</text>
<text x="340" y="327.7" font-size="11" text-anchor="middle" fill="#222222">user confirms or corrects figures; alternatives listed</text>
<rect x="60" y="380" width="131" height="78" rx="6" fill="#ffffff" stroke="#111111" stroke-width="1.2"/>
<text x="125.5" y="403.3" font-size="12.5" font-weight="700" text-anchor="middle" fill="#111111">Anchored rules</text>
<text x="125.5" y="425.8" font-size="10.5" text-anchor="middle" fill="#222222">26 verified rules,</text>
<text x="125.5" y="441.5" font-size="10.5" text-anchor="middle" fill="#222222">version in force</text>
<line x1="125.5" y1="362" x2="125.5" y2="376" stroke="#111111" stroke-width="1"/>
<path d="M125.5,362 L125.5,376" fill="none" stroke="#111111" stroke-width="1.3" marker-end="url(#arrow)"/>
<line x1="125.5" y1="458" x2="125.5" y2="476" stroke="#111111" stroke-width="1"/>
<rect x="203" y="380" width="131" height="78" rx="6" fill="#ffffff" stroke="#111111" stroke-width="1.2"/>
<text x="268.5" y="403.3" font-size="12.5" font-weight="700" text-anchor="middle" fill="#111111">Rule discovery</text>
<text x="268.5" y="425.8" font-size="10.5" text-anchor="middle" fill="#222222">corpus atoms for</text>
<text x="268.5" y="441.5" font-size="10.5" text-anchor="middle" fill="#222222">other figures</text>
<line x1="268.5" y1="362" x2="268.5" y2="376" stroke="#111111" stroke-width="1"/>
<path d="M268.5,362 L268.5,376" fill="none" stroke="#111111" stroke-width="1.3" marker-end="url(#arrow)"/>
<line x1="268.5" y1="458" x2="268.5" y2="476" stroke="#111111" stroke-width="1"/>
<rect x="346" y="380" width="131" height="78" rx="6" fill="#ffffff" stroke="#111111" stroke-width="1.2"/>
<text x="411.5" y="403.3" font-size="12.5" font-weight="700" text-anchor="middle" fill="#111111">Disclosures</text>
<text x="411.5" y="425.8" font-size="10.5" text-anchor="middle" fill="#222222">required notes and</text>
<text x="411.5" y="441.5" font-size="10.5" text-anchor="middle" fill="#222222">Pillar 3 tables</text>
<line x1="411.5" y1="362" x2="411.5" y2="376" stroke="#111111" stroke-width="1"/>
<path d="M411.5,362 L411.5,376" fill="none" stroke="#111111" stroke-width="1.3" marker-end="url(#arrow)"/>
<line x1="411.5" y1="458" x2="411.5" y2="476" stroke="#111111" stroke-width="1"/>
<rect x="489" y="380" width="131" height="78" rx="6" fill="#ffffff" stroke="#111111" stroke-width="1.2"/>
<text x="554.5" y="403.3" font-size="12.5" font-weight="700" text-anchor="middle" fill="#111111">Qualitative</text>
<text x="554.5" y="425.8" font-size="10.5" text-anchor="middle" fill="#222222">obligations the</text>
<text x="554.5" y="441.5" font-size="10.5" text-anchor="middle" fill="#222222">document covers</text>
<line x1="554.5" y1="362" x2="554.5" y2="376" stroke="#111111" stroke-width="1"/>
<path d="M554.5,362 L554.5,376" fill="none" stroke="#111111" stroke-width="1.3" marker-end="url(#arrow)"/>
<line x1="554.5" y1="458" x2="554.5" y2="476" stroke="#111111" stroke-width="1"/>
<line x1="125.5" y1="362" x2="554.5" y2="362" stroke="#111111" stroke-width="1"/>
<line x1="340" y1="340" x2="340" y2="362" stroke="#111111" stroke-width="1"/>
<line x1="125.5" y1="476" x2="554.5" y2="476" stroke="#111111" stroke-width="1"/>
<text x="680" y="36" font-size="14" font-weight="700" fill="#111111">B.  Bank Explorer (stored bank data)</text>
<path d="M680,65 a88.7,9 0 0,0 177.3,0 a88.7,9 0 0,0 -177.3,0 v74 a88.7,9 0 0,0 177.3,0 v-74" fill="#ffffff" stroke="#111111" stroke-width="1.4"/>
<text x="768.7" y="93.7" font-size="14" font-weight="700" text-anchor="middle" fill="#111111">Reported figures</text>
<text x="768.7" y="116.7" font-size="10.5" text-anchor="middle" fill="#222222">bank_quant_submissions</text>
<text x="768.7" y="132.4" font-size="10.5" text-anchor="middle" fill="#222222">+ anomaly checks</text>
<path d="M871.3,65 a88.7,9 0 0,0 177.3,0 a88.7,9 0 0,0 -177.3,0 v74 a88.7,9 0 0,0 177.3,0 v-74" fill="#ffffff" stroke="#111111" stroke-width="1.4"/>
<text x="960" y="93.7" font-size="14" font-weight="700" text-anchor="middle" fill="#111111">Policy evidence</text>
<text x="960" y="116.7" font-size="10.5" text-anchor="middle" fill="#222222">bank_qual_evidence</text>
<text x="960" y="132.4" font-size="10.5" text-anchor="middle" fill="#222222">statements per bank</text>
<path d="M1062.7,65 a88.7,9 0 0,0 177.3,0 a88.7,9 0 0,0 -177.3,0 v74 a88.7,9 0 0,0 177.3,0 v-74" fill="#ffffff" stroke="#111111" stroke-width="1.4"/>
<text x="1151.3" y="93.7" font-size="14" font-weight="700" text-anchor="middle" fill="#111111">Counterparty network</text>
<text x="1151.3" y="116.7" font-size="10.5" text-anchor="middle" fill="#222222">entities · edges</text>
<text x="1151.3" y="132.4" font-size="10.5" text-anchor="middle" fill="#222222">exposures · capital</text>
<rect x="680" y="196" width="560" height="66" rx="6" fill="#ffffff" stroke="#111111" stroke-width="1.2"/>
<text x="960" y="221.2" font-size="14" font-weight="700" text-anchor="middle" fill="#111111">Applicable rules</text>
<text x="960" y="244.7" font-size="11" text-anchor="middle" fill="#222222">obligations of the bank's category · A–G type · risk · version on the as-of date</text>
<path d="M768.7,148 L768.7,192" fill="none" stroke="#111111" stroke-width="1.3" marker-end="url(#arrow)"/>
<path d="M960,148 L960,192" fill="none" stroke="#111111" stroke-width="1.3" marker-end="url(#arrow)"/>
<path d="M1151.3,148 L1151.3,192" fill="none" stroke="#111111" stroke-width="1.3" marker-end="url(#arrow)"/>
<rect x="680" y="300" width="560" height="78" rx="6" fill="#ffffff" stroke="#111111" stroke-width="2.4"/>
<text x="960" y="323" font-size="14" font-weight="700" text-anchor="middle" fill="#111111">Adaptive router (Algorithm 1, Fig. 5)</text>
<text x="960" y="346.5" font-size="11" text-anchor="middle" fill="#222222">features → gates → hard override → cost-aware argmin</text>
<text x="960" y="363" font-size="11" text-anchor="middle" fill="#222222">falls back to the heuristic router if not adopted</text>
<path d="M960,262 L960,296" fill="none" stroke="#111111" stroke-width="1.3" marker-end="url(#arrow)"/>
<rect x="680" y="416" width="131" height="78" rx="6" fill="#ffffff" stroke="#111111" stroke-width="1.2"/>
<text x="745.5" y="439.3" font-size="12.5" font-weight="700" text-anchor="middle" fill="#111111">Rule engine</text>
<text x="745.5" y="461.8" font-size="10.5" text-anchor="middle" fill="#222222">quantitative</text>
<text x="745.5" y="477.5" font-size="10.5" text-anchor="middle" fill="#222222">check</text>
<path d="M745.5,396 L745.5,412" fill="none" stroke="#111111" stroke-width="1.3" marker-end="url(#arrow)"/>
<line x1="745.5" y1="494" x2="745.5" y2="512" stroke="#111111" stroke-width="1"/>
<rect x="823" y="416" width="131" height="78" rx="6" fill="#ffffff" stroke="#111111" stroke-width="1.2"/>
<text x="888.5" y="439.3" font-size="12.5" font-weight="700" text-anchor="middle" fill="#111111">Graph</text>
<text x="888.5" y="461.8" font-size="10.5" text-anchor="middle" fill="#222222">network</text>
<text x="888.5" y="477.5" font-size="10.5" text-anchor="middle" fill="#222222">check</text>
<path d="M888.5,396 L888.5,412" fill="none" stroke="#111111" stroke-width="1.3" marker-end="url(#arrow)"/>
<line x1="888.5" y1="494" x2="888.5" y2="512" stroke="#111111" stroke-width="1"/>
<rect x="966" y="416" width="131" height="78" rx="6" fill="#ffffff" stroke="#111111" stroke-width="1.2"/>
<text x="1031.5" y="439.3" font-size="12.5" font-weight="700" text-anchor="middle" fill="#111111">RAG + LLM</text>
<text x="1031.5" y="461.8" font-size="10.5" text-anchor="middle" fill="#222222">qualitative</text>
<text x="1031.5" y="477.5" font-size="10.5" text-anchor="middle" fill="#222222">check</text>
<path d="M1031.5,396 L1031.5,412" fill="none" stroke="#111111" stroke-width="1.3" marker-end="url(#arrow)"/>
<line x1="1031.5" y1="494" x2="1031.5" y2="512" stroke="#111111" stroke-width="1"/>
<rect x="1109" y="416" width="131" height="78" rx="6" fill="#ffffff" stroke="#111111" stroke-width="1.2" stroke-dasharray="6 4"/>
<text x="1174.5" y="439.3" font-size="12.5" font-weight="700" text-anchor="middle" fill="#111111">Human</text>
<text x="1174.5" y="461.8" font-size="10.5" text-anchor="middle" fill="#222222">review</text>
<text x="1174.5" y="477.5" font-size="10.5" text-anchor="middle" fill="#222222">queue</text>
<path d="M1174.5,396 L1174.5,412" fill="none" stroke="#111111" stroke-width="1.3" marker-end="url(#arrow)"/>
<line x1="1174.5" y1="494" x2="1174.5" y2="512" stroke="#111111" stroke-width="1"/>
<line x1="745.5" y1="396" x2="1174.5" y2="396" stroke="#111111" stroke-width="1"/>
<line x1="960" y1="378" x2="960" y2="396" stroke="#111111" stroke-width="1"/>
<line x1="745.5" y1="512" x2="1174.5" y2="512" stroke="#111111" stroke-width="1"/>
<rect x="60" y="560" width="1180" height="96" rx="6" fill="#ffffff" stroke="#111111" stroke-width="1.2"/>
<text x="650" y="591.2" font-size="14" font-weight="700" text-anchor="middle" fill="#111111">Decision layer (decisions.js)</text>
<text x="650" y="615.2" font-size="11.5" text-anchor="middle" fill="#222222">engine status → one of five decisions · evidence completeness · citation of the governing paragraph</text>
<text x="650" y="632.5" font-size="11.5" text-anchor="middle" fill="#222222">recommended action for breaches (gap to threshold, counterparty to reduce) · routing reasons in the audit log</text>
<path d="M340,476 L340,556" fill="none" stroke="#111111" stroke-width="1.3" marker-end="url(#arrow)"/>
<path d="M960,512 L960,556" fill="none" stroke="#111111" stroke-width="1.3" marker-end="url(#arrow)"/>
<rect x="72" y="682" width="212" height="28" rx="14" fill="#ffffff" stroke="#111111" stroke-width="1.2"/><text x="178" y="700" font-size="11.5" font-weight="700" text-anchor="middle" fill="#111111">COMPLIANT</text>
<rect x="308" y="682" width="212" height="28" rx="14" fill="#ffffff" stroke="#111111" stroke-width="1.2"/><text x="414" y="700" font-size="11.5" font-weight="700" text-anchor="middle" fill="#111111">NON_COMPLIANT</text>
<rect x="544" y="682" width="212" height="28" rx="14" fill="#ffffff" stroke="#111111" stroke-width="1.2"/><text x="650" y="700" font-size="11.5" font-weight="700" text-anchor="middle" fill="#111111">INSUFFICIENT_DATA</text>
<rect x="780" y="682" width="212" height="28" rx="14" fill="#ffffff" stroke="#111111" stroke-width="1.2"/><text x="886" y="700" font-size="11.5" font-weight="700" text-anchor="middle" fill="#111111">AMBIGUOUS</text>
<rect x="1016" y="682" width="212" height="28" rx="14" fill="#ffffff" stroke="#111111" stroke-width="1.2"/><text x="1122" y="700" font-size="11.5" font-weight="700" text-anchor="middle" fill="#111111">REQUIRES_HUMAN_REVIEW</text>
<path d="M650,656 L650,680" fill="none" stroke="#111111" stroke-width="1.3" marker-end="url(#arrow)"/>
<rect x="60" y="740" width="560" height="56" rx="6" fill="#ffffff" stroke="#111111" stroke-width="1.2"/>
<text x="340" y="760.2" font-size="14" font-weight="700" text-anchor="middle" fill="#111111">Compliance report</text>
<text x="340" y="783.7" font-size="11" text-anchor="middle" fill="#222222">decisions, figures, citations; HTML / PDF export</text>
<rect x="680" y="740" width="560" height="56" rx="6" fill="#ffffff" stroke="#111111" stroke-width="1.2"/>
<text x="960" y="760.2" font-size="14" font-weight="700" text-anchor="middle" fill="#111111">Run history</text>
<text x="960" y="783.7" font-size="11" text-anchor="middle" fill="#222222">stored runs per bank and period; comparison of routers</text>
</svg>
